# xmcd CD database file
#
# Track frame offsets:
#	150
#	20906
#	33381
#	64703
#	100261
#	129587
#	152652
#	173038
#	200355
#
# Disc length: 2796 seconds
#
# Revision: 0
# Processed by: cddbd v1.4PL0 Copyright (c) Steve Scherf et al.
# Submitted via: CDex 1.50beta9
#
DISCID=740aea09
DTITLE=Papalagi - o lado de la (live)
DYEAR=1900
DGENRE=New Age
TTITLE0=two hours
TTITLE1=herrero grande
TTITLE2=makatussin
TTITLE3=back in samouco
TTITLE4=kava kava
TTITLE5=unconstrained
TTITLE6=free one
TTITLE7=rude arrival
TTITLE8=sam jession
EXTD=
EXTT0=
EXTT1=
EXTT2=
EXTT3=
EXTT4=
EXTT5=
EXTT6=
EXTT7=
EXTT8=
PLAYORDER=
